<mxfile host="Electron" modified="2024-06-25T20:09:08.678Z" agent="Mozilla/5.0 (Windows NT 10.0; Win64; x64) AppleWebKit/537.36 (KHTML, like Gecko) draw.io/23.0.2 Chrome/120.0.6099.109 Electron/28.1.0 Safari/537.36" etag="FvunbI3I42xpa9dXSnAy" version="23.0.2" type="device" pages="3">
  <diagram id="C5RBs43oDa-KdzZeNtuy" name="Model">
    <mxGraphModel dx="3621" dy="2766" grid="1" gridSize="10" guides="1" tooltips="1" connect="1" arrows="1" fold="1" page="1" pageScale="1" pageWidth="827" pageHeight="1169" math="0" shadow="0">
      <root>
        <mxCell id="WIyWlLk6GJQsqaUBKTNV-0" />
        <mxCell id="WIyWlLk6GJQsqaUBKTNV-1" parent="WIyWlLk6GJQsqaUBKTNV-0" />
        <mxCell id="MVc4azZJ204FzmwRH_iZ-18" style="edgeStyle=orthogonalEdgeStyle;rounded=0;orthogonalLoop=1;jettySize=auto;html=1;exitX=0.75;exitY=1;exitDx=0;exitDy=0;entryX=0.75;entryY=0;entryDx=0;entryDy=0;" edge="1" parent="WIyWlLk6GJQsqaUBKTNV-1" source="zkfFHV4jXpPFQw0GAbJ--0" target="zkfFHV4jXpPFQw0GAbJ--17">
          <mxGeometry relative="1" as="geometry" />
        </mxCell>
        <mxCell id="MVc4azZJ204FzmwRH_iZ-19" style="edgeStyle=orthogonalEdgeStyle;rounded=0;orthogonalLoop=1;jettySize=auto;html=1;entryX=1;entryY=0.5;entryDx=0;entryDy=0;exitX=0.121;exitY=1.021;exitDx=0;exitDy=0;exitPerimeter=0;" edge="1" parent="WIyWlLk6GJQsqaUBKTNV-1" source="zkfFHV4jXpPFQw0GAbJ--5" target="xHNJW02Zz35lI7B6frn--7">
          <mxGeometry relative="1" as="geometry">
            <mxPoint x="30" y="-250" as="sourcePoint" />
            <Array as="points">
              <mxPoint x="27" y="-200" />
              <mxPoint x="-73" y="-200" />
              <mxPoint x="-73" y="169" />
            </Array>
          </mxGeometry>
        </mxCell>
        <mxCell id="MVc4azZJ204FzmwRH_iZ-20" style="edgeStyle=orthogonalEdgeStyle;rounded=0;orthogonalLoop=1;jettySize=auto;html=1;exitX=0.5;exitY=0;exitDx=0;exitDy=0;entryX=0;entryY=0.5;entryDx=0;entryDy=0;" edge="1" parent="WIyWlLk6GJQsqaUBKTNV-1" source="zkfFHV4jXpPFQw0GAbJ--0" target="3WFJmiLmZO3d5NEBdzkm-3">
          <mxGeometry relative="1" as="geometry" />
        </mxCell>
        <mxCell id="zkfFHV4jXpPFQw0GAbJ--0" value="Database" style="swimlane;fontStyle=2;align=center;verticalAlign=top;childLayout=stackLayout;horizontal=1;startSize=26;horizontalStack=0;resizeParent=1;resizeLast=0;collapsible=1;marginBottom=0;rounded=0;shadow=0;strokeWidth=1;" parent="WIyWlLk6GJQsqaUBKTNV-1" vertex="1">
          <mxGeometry x="-130" y="-540" width="440" height="310" as="geometry">
            <mxRectangle x="230" y="140" width="160" height="26" as="alternateBounds" />
          </mxGeometry>
        </mxCell>
        <mxCell id="zkfFHV4jXpPFQw0GAbJ--1" value="- instance: Database&#xa;- connection: Connection&#xa;- URL: String" style="text;align=left;verticalAlign=top;spacingLeft=4;spacingRight=4;overflow=hidden;rotatable=0;points=[[0,0.5],[1,0.5]];portConstraint=eastwest;" parent="zkfFHV4jXpPFQw0GAbJ--0" vertex="1">
          <mxGeometry y="26" width="440" height="54" as="geometry" />
        </mxCell>
        <mxCell id="zkfFHV4jXpPFQw0GAbJ--4" value="" style="line;html=1;strokeWidth=1;align=left;verticalAlign=middle;spacingTop=-1;spacingLeft=3;spacingRight=3;rotatable=0;labelPosition=right;points=[];portConstraint=eastwest;" parent="zkfFHV4jXpPFQw0GAbJ--0" vertex="1">
          <mxGeometry y="80" width="440" height="8" as="geometry" />
        </mxCell>
        <mxCell id="zkfFHV4jXpPFQw0GAbJ--5" value="+ getInstance(): Database&#xa;+ getConnection(): Connection&#xa;+ insertPeminjaman(pmjm: PeminjamanRuang, idUser: String): void &#xa;+ pengecekanRuang(tanggal: String, ruang: String): boolean &#xa;+ getListPeminjamanRuang(): List&lt;PeminjamanRuang&gt; &#xa;+ getListPeminjamanRuangById(idUser: String): List&lt;PeminjamanRuang&gt; &#xa;+ getListPencarian(text: String): List&lt;PeminjamanRuang&gt;&#xa;+ getListPencarianById(text: String, idUser: String): List&lt;PeminjamanRuang&gt; &#xa;+ ubahStatus(id_pmjm: String, statusBaru: String): void &#xa;+ editPeminjaman(id_pmjm: String, tgl: String, ruang: String, status:String): void &#xa;+ hapusPeminjaman(id_pmjm: String): void &#xa;+ getListRuang(): List&lt;String&gt; &#xa;+ insertUser(user: User): void &#xa;+ loginUser(user: String, password: String): ResultSet &#xa;+ getUser(user: String): ResultSet " style="text;align=left;verticalAlign=top;spacingLeft=4;spacingRight=4;overflow=hidden;rotatable=0;points=[[0,0.5],[1,0.5]];portConstraint=eastwest;" parent="zkfFHV4jXpPFQw0GAbJ--0" vertex="1">
          <mxGeometry y="88" width="440" height="212" as="geometry" />
        </mxCell>
        <mxCell id="MVc4azZJ204FzmwRH_iZ-14" style="edgeStyle=orthogonalEdgeStyle;rounded=0;orthogonalLoop=1;jettySize=auto;html=1;exitX=0.5;exitY=0;exitDx=0;exitDy=0;entryX=0.5;entryY=1;entryDx=0;entryDy=0;" edge="1" parent="WIyWlLk6GJQsqaUBKTNV-1" source="zkfFHV4jXpPFQw0GAbJ--17" target="zkfFHV4jXpPFQw0GAbJ--0">
          <mxGeometry relative="1" as="geometry" />
        </mxCell>
        <mxCell id="zkfFHV4jXpPFQw0GAbJ--17" value="ChatClient&#xa;" style="swimlane;fontStyle=0;align=center;verticalAlign=top;childLayout=stackLayout;horizontal=1;startSize=26;horizontalStack=0;resizeParent=1;resizeLast=0;collapsible=1;marginBottom=0;rounded=0;shadow=0;strokeWidth=1;" parent="WIyWlLk6GJQsqaUBKTNV-1" vertex="1">
          <mxGeometry x="70" y="-70" width="250" height="150" as="geometry">
            <mxRectangle x="550" y="140" width="160" height="26" as="alternateBounds" />
          </mxGeometry>
        </mxCell>
        <mxCell id="zkfFHV4jXpPFQw0GAbJ--18" value="- socket: Socket&#xa;- reader: BufferedReader&#xa;- writer: PrintWriter" style="text;align=left;verticalAlign=top;spacingLeft=4;spacingRight=4;overflow=hidden;rotatable=0;points=[[0,0.5],[1,0.5]];portConstraint=eastwest;" parent="zkfFHV4jXpPFQw0GAbJ--17" vertex="1">
          <mxGeometry y="26" width="250" height="54" as="geometry" />
        </mxCell>
        <mxCell id="zkfFHV4jXpPFQw0GAbJ--23" value="" style="line;html=1;strokeWidth=1;align=left;verticalAlign=middle;spacingTop=-1;spacingLeft=3;spacingRight=3;rotatable=0;labelPosition=right;points=[];portConstraint=eastwest;" parent="zkfFHV4jXpPFQw0GAbJ--17" vertex="1">
          <mxGeometry y="80" width="250" height="8" as="geometry" />
        </mxCell>
        <mxCell id="zkfFHV4jXpPFQw0GAbJ--24" value="+ ChatClient(serverAddress: String, port: int)&#xa;+ sendMessage(message: String): String&#xa;+ closeConnection(): void" style="text;align=left;verticalAlign=top;spacingLeft=4;spacingRight=4;overflow=hidden;rotatable=0;points=[[0,0.5],[1,0.5]];portConstraint=eastwest;" parent="zkfFHV4jXpPFQw0GAbJ--17" vertex="1">
          <mxGeometry y="88" width="250" height="62" as="geometry" />
        </mxCell>
        <mxCell id="MVc4azZJ204FzmwRH_iZ-26" style="edgeStyle=orthogonalEdgeStyle;rounded=0;orthogonalLoop=1;jettySize=auto;html=1;exitX=0.25;exitY=0;exitDx=0;exitDy=0;" edge="1" parent="WIyWlLk6GJQsqaUBKTNV-1" source="xHNJW02Zz35lI7B6frn--0" target="MVc4azZJ204FzmwRH_iZ-7">
          <mxGeometry relative="1" as="geometry">
            <mxPoint x="240" y="-740" as="targetPoint" />
          </mxGeometry>
        </mxCell>
        <mxCell id="xHNJW02Zz35lI7B6frn--0" value="PeminjamanRuang" style="swimlane;fontStyle=2;align=center;verticalAlign=top;childLayout=stackLayout;horizontal=1;startSize=26;horizontalStack=0;resizeParent=1;resizeLast=0;collapsible=1;marginBottom=0;rounded=0;shadow=0;strokeWidth=1;" vertex="1" parent="WIyWlLk6GJQsqaUBKTNV-1">
          <mxGeometry x="-650" y="-520" width="270" height="340" as="geometry">
            <mxRectangle x="230" y="140" width="160" height="26" as="alternateBounds" />
          </mxGeometry>
        </mxCell>
        <mxCell id="xHNJW02Zz35lI7B6frn--1" value="- ruang: String&#xa;- pengguna: String                  &#xa;- idPmjm: String                    &#xa;- tanggal: String                   &#xa;- kegiatan: String                  &#xa;- status: String   " style="text;align=left;verticalAlign=top;spacingLeft=4;spacingRight=4;overflow=hidden;rotatable=0;points=[[0,0.5],[1,0.5]];portConstraint=eastwest;" vertex="1" parent="xHNJW02Zz35lI7B6frn--0">
          <mxGeometry y="26" width="270" height="104" as="geometry" />
        </mxCell>
        <mxCell id="xHNJW02Zz35lI7B6frn--2" value="" style="line;html=1;strokeWidth=1;align=left;verticalAlign=middle;spacingTop=-1;spacingLeft=3;spacingRight=3;rotatable=0;labelPosition=right;points=[];portConstraint=eastwest;" vertex="1" parent="xHNJW02Zz35lI7B6frn--0">
          <mxGeometry y="130" width="270" height="8" as="geometry" />
        </mxCell>
        <mxCell id="xHNJW02Zz35lI7B6frn--3" value="+ PeminjamanRuang()                 &#xa;+ getRuang(): String                &#xa;+ setRuang(ruang: String): void     &#xa;+ getPengguna(): String             &#xa;+ setPengguna(pengguna: String): void &#xa;+ getIdPmjm(): String               &#xa;+ setIdPmjm(id: String): void       &#xa;+ getTanggal(): String              &#xa;+ setTanggal(tanggal: String): void &#xa;+ getKegiatan(): String             &#xa;+ setKegiatan(kegiatan: String): void &#xa;+ getStatus(): String               &#xa;+ setStatus(status: String): void  " style="text;align=left;verticalAlign=top;spacingLeft=4;spacingRight=4;overflow=hidden;rotatable=0;points=[[0,0.5],[1,0.5]];portConstraint=eastwest;" vertex="1" parent="xHNJW02Zz35lI7B6frn--0">
          <mxGeometry y="138" width="270" height="202" as="geometry" />
        </mxCell>
        <mxCell id="MVc4azZJ204FzmwRH_iZ-16" style="edgeStyle=orthogonalEdgeStyle;rounded=0;orthogonalLoop=1;jettySize=auto;html=1;exitX=0.5;exitY=0;exitDx=0;exitDy=0;entryX=0.25;entryY=1;entryDx=0;entryDy=0;" edge="1" parent="WIyWlLk6GJQsqaUBKTNV-1" source="xHNJW02Zz35lI7B6frn--4" target="zkfFHV4jXpPFQw0GAbJ--0">
          <mxGeometry relative="1" as="geometry" />
        </mxCell>
        <mxCell id="MVc4azZJ204FzmwRH_iZ-24" style="edgeStyle=orthogonalEdgeStyle;rounded=0;orthogonalLoop=1;jettySize=auto;html=1;exitX=0.25;exitY=0;exitDx=0;exitDy=0;" edge="1" parent="WIyWlLk6GJQsqaUBKTNV-1" source="xHNJW02Zz35lI7B6frn--4" target="MVc4azZJ204FzmwRH_iZ-5">
          <mxGeometry relative="1" as="geometry" />
        </mxCell>
        <mxCell id="xHNJW02Zz35lI7B6frn--4" value="User" style="swimlane;fontStyle=2;align=center;verticalAlign=top;childLayout=stackLayout;horizontal=1;startSize=26;horizontalStack=0;resizeParent=1;resizeLast=0;collapsible=1;marginBottom=0;rounded=0;shadow=0;strokeWidth=1;" vertex="1" parent="WIyWlLk6GJQsqaUBKTNV-1">
          <mxGeometry x="-390" y="-70" width="270" height="340" as="geometry">
            <mxRectangle x="230" y="140" width="160" height="26" as="alternateBounds" />
          </mxGeometry>
        </mxCell>
        <mxCell id="xHNJW02Zz35lI7B6frn--5" value="- idUser: String                   &#xa;- nama: String                     &#xa;- email: String                     &#xa;- noTel: String                     &#xa;- password: String                  &#xa;- tipe: String " style="text;align=left;verticalAlign=top;spacingLeft=4;spacingRight=4;overflow=hidden;rotatable=0;points=[[0,0.5],[1,0.5]];portConstraint=eastwest;" vertex="1" parent="xHNJW02Zz35lI7B6frn--4">
          <mxGeometry y="26" width="270" height="104" as="geometry" />
        </mxCell>
        <mxCell id="xHNJW02Zz35lI7B6frn--6" value="" style="line;html=1;strokeWidth=1;align=left;verticalAlign=middle;spacingTop=-1;spacingLeft=3;spacingRight=3;rotatable=0;labelPosition=right;points=[];portConstraint=eastwest;" vertex="1" parent="xHNJW02Zz35lI7B6frn--4">
          <mxGeometry y="130" width="270" height="8" as="geometry" />
        </mxCell>
        <mxCell id="xHNJW02Zz35lI7B6frn--7" value="+ User()                            &#xa;+ getIdUser(): String               &#xa;+ setIdUser(idUser: String): void   &#xa;+ getNama(): String                 &#xa;+ setNama(nama: String): void       &#xa;+ getEmail(): String                &#xa;+ setEmail(email: String): void     &#xa;+ getNoTel(): String                &#xa;+ setNoTel(noTel: String): void     &#xa;+ getPassword(): String             &#xa;+ setPassword(password: String): void &#xa;+ getTipe(): String                 &#xa;+ setTipe(tipe: String): void " style="text;align=left;verticalAlign=top;spacingLeft=4;spacingRight=4;overflow=hidden;rotatable=0;points=[[0,0.5],[1,0.5]];portConstraint=eastwest;" vertex="1" parent="xHNJW02Zz35lI7B6frn--4">
          <mxGeometry y="138" width="270" height="202" as="geometry" />
        </mxCell>
        <mxCell id="3WFJmiLmZO3d5NEBdzkm-0" value="Controller" style="swimlane;fontStyle=2;align=center;verticalAlign=top;childLayout=stackLayout;horizontal=1;startSize=26;horizontalStack=0;resizeParent=1;resizeLast=0;collapsible=1;marginBottom=0;rounded=0;shadow=0;strokeWidth=1;" vertex="1" parent="WIyWlLk6GJQsqaUBKTNV-1">
          <mxGeometry x="720" y="-810" width="490" height="280" as="geometry">
            <mxRectangle x="230" y="140" width="160" height="26" as="alternateBounds" />
          </mxGeometry>
        </mxCell>
        <mxCell id="3WFJmiLmZO3d5NEBdzkm-1" value="- database: Database  " style="text;align=left;verticalAlign=top;spacingLeft=4;spacingRight=4;overflow=hidden;rotatable=0;points=[[0,0.5],[1,0.5]];portConstraint=eastwest;" vertex="1" parent="3WFJmiLmZO3d5NEBdzkm-0">
          <mxGeometry y="26" width="490" height="34" as="geometry" />
        </mxCell>
        <mxCell id="3WFJmiLmZO3d5NEBdzkm-2" value="" style="line;html=1;strokeWidth=1;align=left;verticalAlign=middle;spacingTop=-1;spacingLeft=3;spacingRight=3;rotatable=0;labelPosition=right;points=[];portConstraint=eastwest;" vertex="1" parent="3WFJmiLmZO3d5NEBdzkm-0">
          <mxGeometry y="60" width="490" height="8" as="geometry" />
        </mxCell>
        <mxCell id="3WFJmiLmZO3d5NEBdzkm-3" value="+ Controller()&#xa;+ createUser(user: User): void&#xa;+ loginUser(username: String, password: String): User&#xa;+ createPeminjaman(peminjaman: PeminjamanRuang, userId: String): void &#xa;+ getPeminjamanRuangList(): List&lt;PeminjamanRuang&gt; &#xa;+ getPeminjamanRuangListById(userId: String): List&lt;PeminjamanRuang&gt; &#xa;+ updatePeminjamanStatus(idPmjm: String, statusBaru: String): void &#xa;+ editPeminjaman(idPmjm: String, tgl: String, ruang: String, status: String): void &#xa;+ deletePeminjaman(idPmjm: String): void &#xa;+ getRuangList(): List&lt;String&gt;       &#xa;+ isRuangAvailable(tanggal: String, ruang: String): boolean &#xa;+ searchPeminjamanRuang(text: String): List&lt;PeminjamanRuang&gt; &#xa;+ searchPeminjamanRuangById(text: String, userId: String): List&lt;PeminjamanRuang&gt; " style="text;align=left;verticalAlign=top;spacingLeft=4;spacingRight=4;overflow=hidden;rotatable=0;points=[[0,0.5],[1,0.5]];portConstraint=eastwest;" vertex="1" parent="3WFJmiLmZO3d5NEBdzkm-0">
          <mxGeometry y="68" width="490" height="202" as="geometry" />
        </mxCell>
        <mxCell id="3WFJmiLmZO3d5NEBdzkm-4" value="ClientController  " style="swimlane;fontStyle=2;align=center;verticalAlign=top;childLayout=stackLayout;horizontal=1;startSize=26;horizontalStack=0;resizeParent=1;resizeLast=0;collapsible=1;marginBottom=0;rounded=0;shadow=0;strokeWidth=1;" vertex="1" parent="WIyWlLk6GJQsqaUBKTNV-1">
          <mxGeometry x="620" y="-480" width="250" height="160" as="geometry">
            <mxRectangle x="230" y="140" width="160" height="26" as="alternateBounds" />
          </mxGeometry>
        </mxCell>
        <mxCell id="3WFJmiLmZO3d5NEBdzkm-5" value="- socket: Socket                    &#xa;- reader: BufferedReader            &#xa;- writer: PrintWriter   " style="text;align=left;verticalAlign=top;spacingLeft=4;spacingRight=4;overflow=hidden;rotatable=0;points=[[0,0.5],[1,0.5]];portConstraint=eastwest;" vertex="1" parent="3WFJmiLmZO3d5NEBdzkm-4">
          <mxGeometry y="26" width="250" height="54" as="geometry" />
        </mxCell>
        <mxCell id="3WFJmiLmZO3d5NEBdzkm-6" value="" style="line;html=1;strokeWidth=1;align=left;verticalAlign=middle;spacingTop=-1;spacingLeft=3;spacingRight=3;rotatable=0;labelPosition=right;points=[];portConstraint=eastwest;" vertex="1" parent="3WFJmiLmZO3d5NEBdzkm-4">
          <mxGeometry y="80" width="250" height="8" as="geometry" />
        </mxCell>
        <mxCell id="3WFJmiLmZO3d5NEBdzkm-7" value="+ ClientController()                &#xa;+ sendMessage(message: String): String &#xa;+ closeConnection(): void" style="text;align=left;verticalAlign=top;spacingLeft=4;spacingRight=4;overflow=hidden;rotatable=0;points=[[0,0.5],[1,0.5]];portConstraint=eastwest;" vertex="1" parent="3WFJmiLmZO3d5NEBdzkm-4">
          <mxGeometry y="88" width="250" height="62" as="geometry" />
        </mxCell>
        <mxCell id="3WFJmiLmZO3d5NEBdzkm-8" value="ServerController  " style="swimlane;fontStyle=2;align=center;verticalAlign=top;childLayout=stackLayout;horizontal=1;startSize=26;horizontalStack=0;resizeParent=1;resizeLast=0;collapsible=1;marginBottom=0;rounded=0;shadow=0;strokeWidth=1;" vertex="1" parent="WIyWlLk6GJQsqaUBKTNV-1">
          <mxGeometry x="980" y="-390" width="250" height="170" as="geometry">
            <mxRectangle x="230" y="140" width="160" height="26" as="alternateBounds" />
          </mxGeometry>
        </mxCell>
        <mxCell id="3WFJmiLmZO3d5NEBdzkm-9" value="- serverSocket: ServerSocket         &#xa;- clientSocket: Socket               &#xa;- reader: BufferedReader             &#xa;- writer: PrintWriter  " style="text;align=left;verticalAlign=top;spacingLeft=4;spacingRight=4;overflow=hidden;rotatable=0;points=[[0,0.5],[1,0.5]];portConstraint=eastwest;" vertex="1" parent="3WFJmiLmZO3d5NEBdzkm-8">
          <mxGeometry y="26" width="250" height="74" as="geometry" />
        </mxCell>
        <mxCell id="3WFJmiLmZO3d5NEBdzkm-10" value="" style="line;html=1;strokeWidth=1;align=left;verticalAlign=middle;spacingTop=-1;spacingLeft=3;spacingRight=3;rotatable=0;labelPosition=right;points=[];portConstraint=eastwest;" vertex="1" parent="3WFJmiLmZO3d5NEBdzkm-8">
          <mxGeometry y="100" width="250" height="8" as="geometry" />
        </mxCell>
        <mxCell id="3WFJmiLmZO3d5NEBdzkm-11" value="+ ServerController()                 &#xa;- handleMessages(): void             &#xa;- closeConnection(): void   " style="text;align=left;verticalAlign=top;spacingLeft=4;spacingRight=4;overflow=hidden;rotatable=0;points=[[0,0.5],[1,0.5]];portConstraint=eastwest;" vertex="1" parent="3WFJmiLmZO3d5NEBdzkm-8">
          <mxGeometry y="108" width="250" height="62" as="geometry" />
        </mxCell>
        <mxCell id="MVc4azZJ204FzmwRH_iZ-0" value="Login" style="swimlane;fontStyle=2;align=center;verticalAlign=top;childLayout=stackLayout;horizontal=1;startSize=26;horizontalStack=0;resizeParent=1;resizeLast=0;collapsible=1;marginBottom=0;rounded=0;shadow=0;strokeWidth=1;" vertex="1" parent="WIyWlLk6GJQsqaUBKTNV-1">
          <mxGeometry x="40" y="-1100" width="150" height="80" as="geometry">
            <mxRectangle x="230" y="140" width="160" height="26" as="alternateBounds" />
          </mxGeometry>
        </mxCell>
        <mxCell id="MVc4azZJ204FzmwRH_iZ-1" value="+ main(): void" style="text;align=left;verticalAlign=top;spacingLeft=4;spacingRight=4;overflow=hidden;rotatable=0;points=[[0,0.5],[1,0.5]];portConstraint=eastwest;" vertex="1" parent="MVc4azZJ204FzmwRH_iZ-0">
          <mxGeometry y="26" width="150" height="54" as="geometry" />
        </mxCell>
        <mxCell id="MVc4azZJ204FzmwRH_iZ-2" value="Daftar" style="swimlane;fontStyle=2;align=center;verticalAlign=top;childLayout=stackLayout;horizontal=1;startSize=26;horizontalStack=0;resizeParent=1;resizeLast=0;collapsible=1;marginBottom=0;rounded=0;shadow=0;strokeWidth=1;" vertex="1" parent="WIyWlLk6GJQsqaUBKTNV-1">
          <mxGeometry x="339" y="-1115" width="150" height="110" as="geometry">
            <mxRectangle x="230" y="140" width="160" height="26" as="alternateBounds" />
          </mxGeometry>
        </mxCell>
        <mxCell id="MVc4azZJ204FzmwRH_iZ-3" value="+ Daftar ()&#xa;+ validateKosong()&#xa;- validateRegister&#xa;- clearFormDaftar" style="text;align=left;verticalAlign=top;spacingLeft=4;spacingRight=4;overflow=hidden;rotatable=0;points=[[0,0.5],[1,0.5]];portConstraint=eastwest;" vertex="1" parent="MVc4azZJ204FzmwRH_iZ-2">
          <mxGeometry y="26" width="150" height="84" as="geometry" />
        </mxCell>
        <mxCell id="MVc4azZJ204FzmwRH_iZ-4" value="DashboardAdmin" style="swimlane;fontStyle=2;align=center;verticalAlign=top;childLayout=stackLayout;horizontal=1;startSize=26;horizontalStack=0;resizeParent=1;resizeLast=0;collapsible=1;marginBottom=0;rounded=0;shadow=0;strokeWidth=1;" vertex="1" parent="WIyWlLk6GJQsqaUBKTNV-1">
          <mxGeometry x="-50" y="-920" width="150" height="100" as="geometry">
            <mxRectangle x="230" y="140" width="160" height="26" as="alternateBounds" />
          </mxGeometry>
        </mxCell>
        <mxCell id="MVc4azZJ204FzmwRH_iZ-5" value="+ DashboardAdmin ()&#xa;+ exportToCSV ()&#xa;+ exportToExcel ()&#xa;- loadTableData ()" style="text;align=left;verticalAlign=top;spacingLeft=4;spacingRight=4;overflow=hidden;rotatable=0;points=[[0,0.5],[1,0.5]];portConstraint=eastwest;" vertex="1" parent="MVc4azZJ204FzmwRH_iZ-4">
          <mxGeometry y="26" width="150" height="74" as="geometry" />
        </mxCell>
        <mxCell id="MVc4azZJ204FzmwRH_iZ-6" value="DashboardUser" style="swimlane;fontStyle=2;align=center;verticalAlign=top;childLayout=stackLayout;horizontal=1;startSize=26;horizontalStack=0;resizeParent=1;resizeLast=0;collapsible=1;marginBottom=0;rounded=0;shadow=0;strokeWidth=1;" vertex="1" parent="WIyWlLk6GJQsqaUBKTNV-1">
          <mxGeometry x="170" y="-850" width="150" height="150" as="geometry">
            <mxRectangle x="230" y="140" width="160" height="26" as="alternateBounds" />
          </mxGeometry>
        </mxCell>
        <mxCell id="MVc4azZJ204FzmwRH_iZ-7" value="+ DashboardUser ()&#xa;+ DisplayMessage ()&#xa;+ validateTanggal ()&#xa;-  clearForm ()&#xa;-  clearError ()&#xa;+ validateKosong ()&#xa;- loadTableData&#xa;+ tampil_ruang()" style="text;align=left;verticalAlign=top;spacingLeft=4;spacingRight=4;overflow=hidden;rotatable=0;points=[[0,0.5],[1,0.5]];portConstraint=eastwest;" vertex="1" parent="MVc4azZJ204FzmwRH_iZ-6">
          <mxGeometry y="26" width="150" height="124" as="geometry" />
        </mxCell>
        <mxCell id="MVc4azZJ204FzmwRH_iZ-8" value="" style="endArrow=classic;html=1;rounded=0;entryX=0.5;entryY=0;entryDx=0;entryDy=0;exitX=0.509;exitY=1.005;exitDx=0;exitDy=0;exitPerimeter=0;" edge="1" parent="WIyWlLk6GJQsqaUBKTNV-1" source="MVc4azZJ204FzmwRH_iZ-1" target="MVc4azZJ204FzmwRH_iZ-4">
          <mxGeometry width="50" height="50" relative="1" as="geometry">
            <mxPoint x="140" y="-870" as="sourcePoint" />
            <mxPoint x="190" y="-920" as="targetPoint" />
          </mxGeometry>
        </mxCell>
        <mxCell id="MVc4azZJ204FzmwRH_iZ-9" value="" style="endArrow=classic;html=1;rounded=0;entryX=0.5;entryY=0;entryDx=0;entryDy=0;" edge="1" parent="WIyWlLk6GJQsqaUBKTNV-1" target="MVc4azZJ204FzmwRH_iZ-6">
          <mxGeometry width="50" height="50" relative="1" as="geometry">
            <mxPoint x="120" y="-1020" as="sourcePoint" />
            <mxPoint x="145" y="-950" as="targetPoint" />
          </mxGeometry>
        </mxCell>
        <mxCell id="MVc4azZJ204FzmwRH_iZ-10" value="" style="endArrow=classic;html=1;rounded=0;exitX=1;exitY=0.5;exitDx=0;exitDy=0;entryX=0;entryY=0.5;entryDx=0;entryDy=0;" edge="1" parent="WIyWlLk6GJQsqaUBKTNV-1" source="MVc4azZJ204FzmwRH_iZ-1" target="MVc4azZJ204FzmwRH_iZ-3">
          <mxGeometry width="50" height="50" relative="1" as="geometry">
            <mxPoint x="140" y="-870" as="sourcePoint" />
            <mxPoint x="190" y="-920" as="targetPoint" />
          </mxGeometry>
        </mxCell>
        <mxCell id="MVc4azZJ204FzmwRH_iZ-11" value="" style="endArrow=classic;html=1;rounded=0;exitX=-0.019;exitY=0.229;exitDx=0;exitDy=0;entryX=1.028;entryY=0.064;entryDx=0;entryDy=0;entryPerimeter=0;exitPerimeter=0;" edge="1" parent="WIyWlLk6GJQsqaUBKTNV-1" source="MVc4azZJ204FzmwRH_iZ-3" target="MVc4azZJ204FzmwRH_iZ-1">
          <mxGeometry width="50" height="50" relative="1" as="geometry">
            <mxPoint x="200" y="-1037" as="sourcePoint" />
            <mxPoint x="349" y="-1037" as="targetPoint" />
          </mxGeometry>
        </mxCell>
        <mxCell id="MVc4azZJ204FzmwRH_iZ-15" style="edgeStyle=orthogonalEdgeStyle;rounded=0;orthogonalLoop=1;jettySize=auto;html=1;exitX=0;exitY=0.5;exitDx=0;exitDy=0;entryX=1.013;entryY=0.03;entryDx=0;entryDy=0;entryPerimeter=0;" edge="1" parent="WIyWlLk6GJQsqaUBKTNV-1" source="zkfFHV4jXpPFQw0GAbJ--5" target="xHNJW02Zz35lI7B6frn--3">
          <mxGeometry relative="1" as="geometry" />
        </mxCell>
        <mxCell id="MVc4azZJ204FzmwRH_iZ-17" style="edgeStyle=orthogonalEdgeStyle;rounded=0;orthogonalLoop=1;jettySize=auto;html=1;exitX=1;exitY=0.5;exitDx=0;exitDy=0;entryX=-0.014;entryY=0.192;entryDx=0;entryDy=0;entryPerimeter=0;" edge="1" parent="WIyWlLk6GJQsqaUBKTNV-1" source="xHNJW02Zz35lI7B6frn--1" target="zkfFHV4jXpPFQw0GAbJ--5">
          <mxGeometry relative="1" as="geometry" />
        </mxCell>
        <mxCell id="MVc4azZJ204FzmwRH_iZ-21" style="edgeStyle=orthogonalEdgeStyle;rounded=0;orthogonalLoop=1;jettySize=auto;html=1;exitX=0;exitY=0.5;exitDx=0;exitDy=0;entryX=1;entryY=0.5;entryDx=0;entryDy=0;" edge="1" parent="WIyWlLk6GJQsqaUBKTNV-1" source="3WFJmiLmZO3d5NEBdzkm-7" target="zkfFHV4jXpPFQw0GAbJ--18">
          <mxGeometry relative="1" as="geometry" />
        </mxCell>
        <mxCell id="MVc4azZJ204FzmwRH_iZ-22" style="edgeStyle=orthogonalEdgeStyle;rounded=0;orthogonalLoop=1;jettySize=auto;html=1;exitX=0;exitY=0.5;exitDx=0;exitDy=0;entryX=1;entryY=0.5;entryDx=0;entryDy=0;" edge="1" parent="WIyWlLk6GJQsqaUBKTNV-1" source="3WFJmiLmZO3d5NEBdzkm-11" target="zkfFHV4jXpPFQw0GAbJ--24">
          <mxGeometry relative="1" as="geometry" />
        </mxCell>
        <mxCell id="MVc4azZJ204FzmwRH_iZ-23" style="edgeStyle=orthogonalEdgeStyle;rounded=0;orthogonalLoop=1;jettySize=auto;html=1;exitX=0.75;exitY=0;exitDx=0;exitDy=0;entryX=-0.007;entryY=0.723;entryDx=0;entryDy=0;entryPerimeter=0;" edge="1" parent="WIyWlLk6GJQsqaUBKTNV-1" source="xHNJW02Zz35lI7B6frn--4" target="MVc4azZJ204FzmwRH_iZ-7">
          <mxGeometry relative="1" as="geometry" />
        </mxCell>
        <mxCell id="MVc4azZJ204FzmwRH_iZ-25" style="edgeStyle=orthogonalEdgeStyle;rounded=0;orthogonalLoop=1;jettySize=auto;html=1;exitX=0.75;exitY=0;exitDx=0;exitDy=0;entryX=-0.037;entryY=0.031;entryDx=0;entryDy=0;entryPerimeter=0;" edge="1" parent="WIyWlLk6GJQsqaUBKTNV-1" source="xHNJW02Zz35lI7B6frn--0" target="MVc4azZJ204FzmwRH_iZ-5">
          <mxGeometry relative="1" as="geometry" />
        </mxCell>
      </root>
    </mxGraphModel>
  </diagram>
  <diagram id="fAv7xGUfCdGcgajGLdn_" name="Controller">
    <mxGraphModel dx="3559" dy="2342" grid="1" gridSize="10" guides="1" tooltips="1" connect="1" arrows="1" fold="1" page="1" pageScale="1" pageWidth="850" pageHeight="1100" math="0" shadow="0">
      <root>
        <mxCell id="0" />
        <mxCell id="1" parent="0" />
        <mxCell id="8ulPFtE3OaOwg9XtBFRC-1" value="Controller" style="swimlane;fontStyle=2;align=center;verticalAlign=top;childLayout=stackLayout;horizontal=1;startSize=26;horizontalStack=0;resizeParent=1;resizeLast=0;collapsible=1;marginBottom=0;rounded=0;shadow=0;strokeWidth=1;" vertex="1" parent="1">
          <mxGeometry x="-370" y="-470" width="490" height="280" as="geometry">
            <mxRectangle x="230" y="140" width="160" height="26" as="alternateBounds" />
          </mxGeometry>
        </mxCell>
        <mxCell id="8ulPFtE3OaOwg9XtBFRC-2" value="- database: Database  " style="text;align=left;verticalAlign=top;spacingLeft=4;spacingRight=4;overflow=hidden;rotatable=0;points=[[0,0.5],[1,0.5]];portConstraint=eastwest;" vertex="1" parent="8ulPFtE3OaOwg9XtBFRC-1">
          <mxGeometry y="26" width="490" height="34" as="geometry" />
        </mxCell>
        <mxCell id="8ulPFtE3OaOwg9XtBFRC-3" value="" style="line;html=1;strokeWidth=1;align=left;verticalAlign=middle;spacingTop=-1;spacingLeft=3;spacingRight=3;rotatable=0;labelPosition=right;points=[];portConstraint=eastwest;" vertex="1" parent="8ulPFtE3OaOwg9XtBFRC-1">
          <mxGeometry y="60" width="490" height="8" as="geometry" />
        </mxCell>
        <mxCell id="8ulPFtE3OaOwg9XtBFRC-4" value="+ Controller()&#xa;+ createUser(user: User): void&#xa;+ loginUser(username: String, password: String): User&#xa;+ createPeminjaman(peminjaman: PeminjamanRuang, userId: String): void &#xa;+ getPeminjamanRuangList(): List&lt;PeminjamanRuang&gt; &#xa;+ getPeminjamanRuangListById(userId: String): List&lt;PeminjamanRuang&gt; &#xa;+ updatePeminjamanStatus(idPmjm: String, statusBaru: String): void &#xa;+ editPeminjaman(idPmjm: String, tgl: String, ruang: String, status: String): void &#xa;+ deletePeminjaman(idPmjm: String): void &#xa;+ getRuangList(): List&lt;String&gt;       &#xa;+ isRuangAvailable(tanggal: String, ruang: String): boolean &#xa;+ searchPeminjamanRuang(text: String): List&lt;PeminjamanRuang&gt; &#xa;+ searchPeminjamanRuangById(text: String, userId: String): List&lt;PeminjamanRuang&gt; " style="text;align=left;verticalAlign=top;spacingLeft=4;spacingRight=4;overflow=hidden;rotatable=0;points=[[0,0.5],[1,0.5]];portConstraint=eastwest;" vertex="1" parent="8ulPFtE3OaOwg9XtBFRC-1">
          <mxGeometry y="68" width="490" height="202" as="geometry" />
        </mxCell>
        <mxCell id="8ulPFtE3OaOwg9XtBFRC-5" value="ClientController  " style="swimlane;fontStyle=2;align=center;verticalAlign=top;childLayout=stackLayout;horizontal=1;startSize=26;horizontalStack=0;resizeParent=1;resizeLast=0;collapsible=1;marginBottom=0;rounded=0;shadow=0;strokeWidth=1;" vertex="1" parent="1">
          <mxGeometry x="-360" y="-160" width="250" height="160" as="geometry">
            <mxRectangle x="230" y="140" width="160" height="26" as="alternateBounds" />
          </mxGeometry>
        </mxCell>
        <mxCell id="8ulPFtE3OaOwg9XtBFRC-6" value="- socket: Socket                    &#xa;- reader: BufferedReader            &#xa;- writer: PrintWriter   " style="text;align=left;verticalAlign=top;spacingLeft=4;spacingRight=4;overflow=hidden;rotatable=0;points=[[0,0.5],[1,0.5]];portConstraint=eastwest;" vertex="1" parent="8ulPFtE3OaOwg9XtBFRC-5">
          <mxGeometry y="26" width="250" height="54" as="geometry" />
        </mxCell>
        <mxCell id="8ulPFtE3OaOwg9XtBFRC-7" value="" style="line;html=1;strokeWidth=1;align=left;verticalAlign=middle;spacingTop=-1;spacingLeft=3;spacingRight=3;rotatable=0;labelPosition=right;points=[];portConstraint=eastwest;" vertex="1" parent="8ulPFtE3OaOwg9XtBFRC-5">
          <mxGeometry y="80" width="250" height="8" as="geometry" />
        </mxCell>
        <mxCell id="8ulPFtE3OaOwg9XtBFRC-8" value="+ ClientController()                &#xa;+ sendMessage(message: String): String &#xa;+ closeConnection(): void" style="text;align=left;verticalAlign=top;spacingLeft=4;spacingRight=4;overflow=hidden;rotatable=0;points=[[0,0.5],[1,0.5]];portConstraint=eastwest;" vertex="1" parent="8ulPFtE3OaOwg9XtBFRC-5">
          <mxGeometry y="88" width="250" height="62" as="geometry" />
        </mxCell>
        <mxCell id="8ulPFtE3OaOwg9XtBFRC-9" value="ServerController  " style="swimlane;fontStyle=2;align=center;verticalAlign=top;childLayout=stackLayout;horizontal=1;startSize=26;horizontalStack=0;resizeParent=1;resizeLast=0;collapsible=1;marginBottom=0;rounded=0;shadow=0;strokeWidth=1;" vertex="1" parent="1">
          <mxGeometry x="-40" y="-160" width="250" height="170" as="geometry">
            <mxRectangle x="230" y="140" width="160" height="26" as="alternateBounds" />
          </mxGeometry>
        </mxCell>
        <mxCell id="8ulPFtE3OaOwg9XtBFRC-10" value="- serverSocket: ServerSocket         &#xa;- clientSocket: Socket               &#xa;- reader: BufferedReader             &#xa;- writer: PrintWriter  " style="text;align=left;verticalAlign=top;spacingLeft=4;spacingRight=4;overflow=hidden;rotatable=0;points=[[0,0.5],[1,0.5]];portConstraint=eastwest;" vertex="1" parent="8ulPFtE3OaOwg9XtBFRC-9">
          <mxGeometry y="26" width="250" height="74" as="geometry" />
        </mxCell>
        <mxCell id="8ulPFtE3OaOwg9XtBFRC-11" value="" style="line;html=1;strokeWidth=1;align=left;verticalAlign=middle;spacingTop=-1;spacingLeft=3;spacingRight=3;rotatable=0;labelPosition=right;points=[];portConstraint=eastwest;" vertex="1" parent="8ulPFtE3OaOwg9XtBFRC-9">
          <mxGeometry y="100" width="250" height="8" as="geometry" />
        </mxCell>
        <mxCell id="8ulPFtE3OaOwg9XtBFRC-12" value="+ ServerController()                 &#xa;- handleMessages(): void             &#xa;- closeConnection(): void   " style="text;align=left;verticalAlign=top;spacingLeft=4;spacingRight=4;overflow=hidden;rotatable=0;points=[[0,0.5],[1,0.5]];portConstraint=eastwest;" vertex="1" parent="8ulPFtE3OaOwg9XtBFRC-9">
          <mxGeometry y="108" width="250" height="62" as="geometry" />
        </mxCell>
      </root>
    </mxGraphModel>
  </diagram>
  <diagram id="6xWLtf6DmHrgU8S7dMR-" name="View">
    <mxGraphModel dx="2069" dy="1659" grid="1" gridSize="10" guides="1" tooltips="1" connect="1" arrows="1" fold="1" page="1" pageScale="1" pageWidth="850" pageHeight="1100" math="0" shadow="0">
      <root>
        <mxCell id="0" />
        <mxCell id="1" parent="0" />
        <mxCell id="I3Zx9ewDRKkwVpIaUZYR-1" value="Login" style="swimlane;fontStyle=2;align=center;verticalAlign=top;childLayout=stackLayout;horizontal=1;startSize=26;horizontalStack=0;resizeParent=1;resizeLast=0;collapsible=1;marginBottom=0;rounded=0;shadow=0;strokeWidth=1;" vertex="1" parent="1">
          <mxGeometry x="-360" y="-160" width="150" height="80" as="geometry">
            <mxRectangle x="230" y="140" width="160" height="26" as="alternateBounds" />
          </mxGeometry>
        </mxCell>
        <mxCell id="I3Zx9ewDRKkwVpIaUZYR-2" value="+ main(): void" style="text;align=left;verticalAlign=top;spacingLeft=4;spacingRight=4;overflow=hidden;rotatable=0;points=[[0,0.5],[1,0.5]];portConstraint=eastwest;" vertex="1" parent="I3Zx9ewDRKkwVpIaUZYR-1">
          <mxGeometry y="26" width="150" height="54" as="geometry" />
        </mxCell>
        <mxCell id="I3Zx9ewDRKkwVpIaUZYR-5" value="Daftar" style="swimlane;fontStyle=2;align=center;verticalAlign=top;childLayout=stackLayout;horizontal=1;startSize=26;horizontalStack=0;resizeParent=1;resizeLast=0;collapsible=1;marginBottom=0;rounded=0;shadow=0;strokeWidth=1;" vertex="1" parent="1">
          <mxGeometry x="-170" y="-160" width="150" height="110" as="geometry">
            <mxRectangle x="230" y="140" width="160" height="26" as="alternateBounds" />
          </mxGeometry>
        </mxCell>
        <mxCell id="I3Zx9ewDRKkwVpIaUZYR-6" value="+ Daftar ()&#xa;+ validateKosong()&#xa;- validateRegister&#xa;- clearFormDaftar" style="text;align=left;verticalAlign=top;spacingLeft=4;spacingRight=4;overflow=hidden;rotatable=0;points=[[0,0.5],[1,0.5]];portConstraint=eastwest;" vertex="1" parent="I3Zx9ewDRKkwVpIaUZYR-5">
          <mxGeometry y="26" width="150" height="84" as="geometry" />
        </mxCell>
        <mxCell id="I3Zx9ewDRKkwVpIaUZYR-7" value="DashboardAdmin" style="swimlane;fontStyle=2;align=center;verticalAlign=top;childLayout=stackLayout;horizontal=1;startSize=26;horizontalStack=0;resizeParent=1;resizeLast=0;collapsible=1;marginBottom=0;rounded=0;shadow=0;strokeWidth=1;" vertex="1" parent="1">
          <mxGeometry x="-340" y="-20" width="150" height="100" as="geometry">
            <mxRectangle x="230" y="140" width="160" height="26" as="alternateBounds" />
          </mxGeometry>
        </mxCell>
        <mxCell id="I3Zx9ewDRKkwVpIaUZYR-8" value="+ DashboardAdmin ()&#xa;+ exportToCSV ()&#xa;+ exportToExcel ()&#xa;- loadTableData ()" style="text;align=left;verticalAlign=top;spacingLeft=4;spacingRight=4;overflow=hidden;rotatable=0;points=[[0,0.5],[1,0.5]];portConstraint=eastwest;" vertex="1" parent="I3Zx9ewDRKkwVpIaUZYR-7">
          <mxGeometry y="26" width="150" height="74" as="geometry" />
        </mxCell>
        <mxCell id="I3Zx9ewDRKkwVpIaUZYR-9" value="DashboardUser" style="swimlane;fontStyle=2;align=center;verticalAlign=top;childLayout=stackLayout;horizontal=1;startSize=26;horizontalStack=0;resizeParent=1;resizeLast=0;collapsible=1;marginBottom=0;rounded=0;shadow=0;strokeWidth=1;" vertex="1" parent="1">
          <mxGeometry x="-140" y="-10" width="150" height="150" as="geometry">
            <mxRectangle x="230" y="140" width="160" height="26" as="alternateBounds" />
          </mxGeometry>
        </mxCell>
        <mxCell id="I3Zx9ewDRKkwVpIaUZYR-10" value="+ DashboardUser ()&#xa;+ DisplayMessage ()&#xa;+ validateTanggal ()&#xa;-  clearForm ()&#xa;-  clearError ()&#xa;+ validateKosong ()&#xa;- loadTableData&#xa;+ tampil_ruang()" style="text;align=left;verticalAlign=top;spacingLeft=4;spacingRight=4;overflow=hidden;rotatable=0;points=[[0,0.5],[1,0.5]];portConstraint=eastwest;" vertex="1" parent="I3Zx9ewDRKkwVpIaUZYR-9">
          <mxGeometry y="26" width="150" height="124" as="geometry" />
        </mxCell>
      </root>
    </mxGraphModel>
  </diagram>
</mxfile>
